<svg height='100px' width='100px'  fill="#000000" xmlns="http://www.w3.org/2000/svg" xmlns:xlink="http://www.w3.org/1999/xlink" version="1.1" x="0px" y="0px" viewBox="0 0 48 48" style="enable-background:new 0 0 48 48;" xml:space="preserve"><style type="text/css">
	.st0{display:none;}
</style><g><g><path d="M10.5,36.9C10.7,37,10.8,37,11,37c0.2,0,0.4,0,0.5-0.1l20-12c0.3-0.2,0.5-0.5,0.5-0.9s-0.2-0.7-0.5-0.9l-20-12    c-0.3-0.2-0.7-0.2-1,0C10.2,11.3,10,11.6,10,12v24C10,36.4,10.2,36.7,10.5,36.9z M12,13.8L29.1,24L12,34.2V13.8z"></path><path d="M37,37c0.6,0,1-0.4,1-1V12c0-0.6-0.4-1-1-1s-1,0.4-1,1v24C36,36.6,36.4,37,37,37z"></path></g></g></svg>