<svg height='100px' width='100px'  fill="#000000" xmlns="http://www.w3.org/2000/svg" xmlns:xlink="http://www.w3.org/1999/xlink" version="1.1" x="0px" y="0px" viewBox="0 0 48 48" style="enable-background:new 0 0 48 48;" xml:space="preserve"><style type="text/css">
	.st0{display:none;}
</style><g><g><path d="M16.5,24.9l20,12C36.6,37,36.8,37,37,37c0.2,0,0.3,0,0.5-0.1c0.3-0.2,0.5-0.5,0.5-0.9V12c0-0.4-0.2-0.7-0.5-0.9    c-0.3-0.2-0.7-0.2-1,0l-20,12C16.2,23.3,16,23.6,16,24S16.2,24.7,16.5,24.9z M36,13.8v20.5L18.9,24L36,13.8z"></path><path d="M11,37c0.6,0,1-0.4,1-1V12c0-0.6-0.4-1-1-1s-1,0.4-1,1v24C10,36.6,10.4,37,11,37z"></path></g></g></svg>