<svg height='100px' width='100px'  fill="#000000" xmlns="http://www.w3.org/2000/svg" xmlns:xlink="http://www.w3.org/1999/xlink" version="1.1" x="0px" y="0px" viewBox="0 0 48 48" style="enable-background:new 0 0 48 48;" xml:space="preserve"><style type="text/css">
	.st0{display:none;}
</style><g><g><path d="M32,20c2.2,0,4-1.8,4-4s-1.8-4-4-4s-4,1.8-4,4c0,0.3,0,0.6,0.1,0.8L19,21.4c-0.7-0.8-1.8-1.4-3-1.4c-2.2,0-4,1.8-4,4    s1.8,4,4,4c1.2,0,2.3-0.5,3-1.4l9.2,4.6C28.1,31.5,28,31.8,28,32c0,2.2,1.8,4,4,4s4-1.8,4-4s-1.8-4-4-4c-1.2,0-2.3,0.5-3,1.4    l-9.2-4.6c0.1-0.3,0.1-0.5,0.1-0.8c0-0.3,0-0.6-0.1-0.8l9.2-4.6C29.8,19.4,30.8,20,32,20z M32,30c1.1,0,2,0.9,2,2s-0.9,2-2,2    c-1.1,0-2-0.9-2-2c0-0.3,0.1-0.6,0.2-0.9c0,0,0,0,0,0c0,0,0,0,0,0C30.6,30.5,31.3,30,32,30z M16,26c-1.1,0-2-0.9-2-2s0.9-2,2-2    s2,0.9,2,2S17.1,26,16,26z M32,14c1.1,0,2,0.9,2,2s-0.9,2-2,2c-1.1,0-2-0.9-2-2S30.9,14,32,14z"></path></g></g></svg>