<svg height='100px' width='100px'  fill="#000000" xmlns="http://www.w3.org/2000/svg" xmlns:xlink="http://www.w3.org/1999/xlink" version="1.1" x="0px" y="0px" viewBox="0 0 48 48" style="enable-background:new 0 0 48 48;" xml:space="preserve"><style type="text/css">
	.st0{display:none;}
</style><g><g><path d="M33,37c0.6,0,1-0.4,1-1V25h1c0.6,0,1-0.4,1-1s-0.4-1-1-1h-1V12c0-0.6-0.4-1-1-1s-1,0.4-1,1v11h-1c-0.6,0-1,0.4-1,1    s0.4,1,1,1h1v11C32,36.6,32.4,37,33,37z"></path><path d="M15,37c0.6,0,1-0.4,1-1V17h1c0.6,0,1-0.4,1-1s-0.4-1-1-1h-1v-3c0-0.6-0.4-1-1-1s-1,0.4-1,1v3h-1c-0.6,0-1,0.4-1,1    s0.4,1,1,1h1v19C14,36.6,14.4,37,15,37z"></path><path d="M27,32c0-0.6-0.4-1-1-1h-1V12c0-0.6-0.4-1-1-1s-1,0.4-1,1v19h-1c-0.6,0-1,0.4-1,1c0,0.6,0.4,1,1,1h1v3c0,0.6,0.4,1,1,1    s1-0.4,1-1v-3h1C26.6,33,27,32.6,27,32z"></path></g></g></svg>